<?xml version="1.0" encoding="utf-8"?>
<!-- Generator: Adobe Illustrator 24.0.0, SVG Export Plug-In . SVG Version: 6.00 Build 0)  -->
<svg version="1.1" id="Layer_1" xmlns="http://www.w3.org/2000/svg" xmlns:xlink="http://www.w3.org/1999/xlink" x="0px" y="0px"
	 viewBox="0 0 300 100" style="enable-background:new 0 0 300 100;" xml:space="preserve">
<style type="text/css">
	.st0{fill:#FFFFFF;}
	.st1{fill:#FF0000;}
</style>
<path class="st0" d="M172.9,60.1c0,1.4-0.2,2.7-0.7,4c-0.5,1.3-1.2,2.4-2.2,3.4s-2.2,1.8-3.6,2.4c-1.5,0.6-3.2,0.9-5.2,0.9h-5.5v6.4
	h4.4v6h-17.3v-6h3.4V55.3h-3.4v-6h17.6c2.2,0,4.1,0.3,5.7,0.8c1.6,0.5,2.9,1.3,3.9,2.2s1.7,2.1,2.2,3.4
	C172.6,57.1,172.9,58.5,172.9,60.1z M155.7,55.3V65h3c1.4,0,2.4-0.4,3.2-1.2c0.7-0.8,1.1-2,1.1-3.5c0-1.7-0.4-3-1.2-3.8
	s-1.9-1.2-3.4-1.2H155.7z"/>
<path class="st0" d="M198.6,49.5h16.2v5.9h-3.6v21.9h3.6v6h-16v-6h3.2V64l0,0c-2.2,1.9-4.3,3.9-6.4,5.8c-2.1,1.9-4.2,3.9-6.4,5.8
	v1.5h3.2v6h-16.3v-6h3.7V55.3h-3.7v-5.9h16.2v5.9h-3.2v13l0,0L202,56.7v-1.3h-3.4V49.5z"/>
<path class="st0" d="M253.3,66.2c0,2.5-0.4,4.8-1.1,7c-0.7,2.1-1.8,4-3.2,5.5c-1.4,1.6-3.2,2.8-5.3,3.7c-2.1,0.9-4.6,1.3-7.3,1.3
	c-2.9,0-5.4-0.4-7.5-1.3s-3.9-2.1-5.3-3.6c-1.4-1.5-2.5-3.4-3.2-5.5c-0.7-2.2-1-4.5-1-7s0.3-4.8,1-6.9c0.7-2.1,1.7-4,3.1-5.6
	c1.4-1.6,3.2-2.8,5.3-3.7s4.7-1.3,7.6-1.3c2.9,0,5.4,0.4,7.5,1.3c2.1,0.9,3.9,2.1,5.3,3.7c1.4,1.6,2.4,3.4,3.1,5.6
	C252.9,61.5,253.3,63.7,253.3,66.2z M243.2,66.2c0-1.5-0.1-2.9-0.3-4.2s-0.6-2.5-1.1-3.5s-1.2-1.8-2.1-2.4c-0.9-0.6-2-0.9-3.3-0.9
	c-1.4,0-2.5,0.3-3.4,0.9c-0.9,0.6-1.6,1.4-2.2,2.4c-0.5,1-0.9,2.2-1.1,3.5c-0.2,1.3-0.3,2.7-0.3,4.2c0,1.7,0.1,3.3,0.4,4.6
	c0.2,1.4,0.6,2.5,1.2,3.4c0.6,0.9,1.3,1.6,2.2,2.2c0.9,0.5,2,0.8,3.3,0.8c1.2,0,2.3-0.3,3.2-0.8s1.6-1.3,2.1-2.2
	c0.5-1,0.9-2.1,1.2-3.4C243.1,69.3,243.2,67.9,243.2,66.2z"/>
<path class="st0" d="M264,83.1v-6h4V55.3h-5v5.8h-6.4V49.4h32.2v11.7h-6.4v-5.8h-5v21.9h4v6H264V83.1z"/>
<g>
	<polygon class="st1" points="72.7,51.2 77,37.8 81.4,51.2 105.3,51.2 113,45.6 85.5,45.6 77,19.4 68.5,45.6 41,45.6 48.7,51.2 	"/>
	<polygon class="st1" points="97.1,57.1 87.3,57.1 84.1,59.5 88.4,72.9 77,64.6 65.6,72.9 70,59.5 66.7,57.1 56.9,57.1 63.3,61.7 
		54.8,87.9 77,71.7 99.3,87.9 90.8,61.7 	"/>
</g>
<polygon class="st0" points="45.5,55.6 36.9,49.4 11.5,49.4 11.5,55.3 15.1,55.3 15.1,77.2 11.5,77.2 11.5,83.1 27.6,83.1 
	27.6,77.2 24.5,77.2 24.5,55.3 36.1,55.3 36.1,77.2 33,77.2 33,83.1 49.1,83.1 49.1,77.2 45.5,77.2 "/>
<polygon class="st0" points="117,49.4 105.6,57.8 105.6,61.1 112,61.1 112,55.3 117.1,55.3 117.1,77.2 113.1,77.2 113.1,83.1 
	130.4,83.1 130.4,77.2 126.4,77.2 126.4,55.3 131.4,55.3 131.4,61.1 137.9,61.1 137.9,49.4 "/>
</svg>
