<?xml version="1.0" encoding="utf-8"?>
<!-- Generator: Adobe Illustrator 24.0.0, SVG Export Plug-In . SVG Version: 6.00 Build 0)  -->
<svg version="1.1" id="Layer_1" xmlns="http://www.w3.org/2000/svg" xmlns:xlink="http://www.w3.org/1999/xlink" x="0px" y="0px"
	 viewBox="0 0 300 100" style="enable-background:new 0 0 300 100;" xml:space="preserve">
<style type="text/css">
	.st0{fill:#4E4E4E;}
	.st1{fill:#979797;}
</style>
<path class="st0" d="M172.9,44.8c0,1.4-0.2,2.7-0.7,4s-1.2,2.4-2.2,3.4s-2.2,1.8-3.6,2.4c-1.5,0.6-3.2,0.9-5.2,0.9h-5.5v6.4h4.4v6
	h-17.3v-6h3.4V40h-3.4v-6h17.6c2.2,0,4.1,0.3,5.7,0.8c1.6,0.5,2.9,1.3,3.9,2.2s1.7,2.1,2.2,3.4C172.6,41.8,172.9,43.2,172.9,44.8z
	 M155.7,40v9.7h3c1.4,0,2.4-0.4,3.2-1.2c0.7-0.8,1.1-2,1.1-3.5c0-1.7-0.4-3-1.2-3.8s-1.9-1.2-3.4-1.2H155.7z"/>
<path class="st0" d="M198.6,34.2h16.2v5.9h-3.6V62h3.6v6h-16v-6h3.2V48.7l0,0c-2.2,1.9-4.3,3.9-6.4,5.8c-2.1,1.9-4.2,3.9-6.4,5.8
	v1.5h3.2v6h-16.3v-6h3.7V40h-3.7v-5.9h16.2V40h-3.2v13l0,0L202,41.4v-1.3h-3.4V34.2z"/>
<path class="st0" d="M253.3,50.9c0,2.5-0.4,4.8-1.1,7c-0.7,2.1-1.8,4-3.2,5.5c-1.4,1.6-3.2,2.8-5.3,3.7c-2.1,0.9-4.6,1.3-7.3,1.3
	c-2.9,0-5.4-0.4-7.5-1.3c-2.1-0.9-3.9-2.1-5.3-3.6c-1.4-1.5-2.5-3.4-3.2-5.5c-0.7-2.2-1-4.5-1-7s0.3-4.8,1-6.9
	c0.7-2.1,1.7-4,3.1-5.6c1.4-1.6,3.2-2.8,5.3-3.7s4.7-1.3,7.6-1.3c2.9,0,5.4,0.4,7.5,1.3c2.1,0.9,3.9,2.1,5.3,3.7
	c1.4,1.6,2.4,3.4,3.1,5.6C252.9,46.2,253.3,48.4,253.3,50.9z M243.2,50.9c0-1.5-0.1-2.9-0.3-4.2s-0.6-2.5-1.1-3.5s-1.2-1.8-2.1-2.4
	c-0.9-0.6-2-0.9-3.3-0.9c-1.4,0-2.5,0.3-3.4,0.9c-0.9,0.6-1.6,1.4-2.2,2.4c-0.5,1-0.9,2.2-1.1,3.5c-0.2,1.3-0.3,2.7-0.3,4.2
	c0,1.7,0.1,3.3,0.4,4.6c0.2,1.4,0.6,2.5,1.2,3.4c0.6,0.9,1.3,1.6,2.2,2.2c0.9,0.5,2,0.8,3.3,0.8c1.2,0,2.3-0.3,3.2-0.8
	s1.6-1.3,2.1-2.2c0.5-1,0.9-2.1,1.2-3.4C243.1,54,243.2,52.6,243.2,50.9z"/>
<path class="st0" d="M264,67.8v-6h4V40h-5v5.8h-6.4V34.1h32.2v11.7h-6.4V40h-5v21.9h4v6L264,67.8L264,67.8z"/>
<g>
	<polygon class="st1" points="72.7,35.9 77,22.5 81.4,35.9 105.3,35.9 113,30.3 85.5,30.3 77,4.1 68.5,30.3 41,30.3 48.7,35.9 	"/>
	<polygon class="st1" points="97.1,41.8 87.3,41.8 84.1,44.2 88.4,57.6 77,49.3 65.6,57.6 70,44.2 66.7,41.8 56.9,41.8 63.3,46.4 
		54.8,72.6 77,56.4 99.3,72.6 90.8,46.4 	"/>
</g>
<polygon class="st0" points="45.5,40.3 36.9,34.1 11.5,34.1 11.5,40 15.1,40 15.1,61.9 11.5,61.9 11.5,67.8 27.6,67.8 27.6,61.9 
	24.5,61.9 24.5,40 36.1,40 36.1,61.9 33,61.9 33,67.8 49.1,67.8 49.1,61.9 45.5,61.9 "/>
<polygon class="st0" points="117,34.1 105.6,42.5 105.6,45.8 112,45.8 112,40 117.1,40 117.1,61.9 113.1,61.9 113.1,67.8 
	130.4,67.8 130.4,61.9 126.4,61.9 126.4,40 131.4,40 131.4,45.8 137.9,45.8 137.9,34.1 "/>
</svg>
