<?xml version="1.0" encoding="utf-8"?>
<!-- Generator: Adobe Illustrator 24.0.0, SVG Export Plug-In . SVG Version: 6.00 Build 0)  -->
<svg version="1.1" id="Layer_1" xmlns="http://www.w3.org/2000/svg" xmlns:xlink="http://www.w3.org/1999/xlink" x="0px" y="0px"
	 viewBox="0 0 888 888" style="enable-background:new 0 0 888 888;" xml:space="preserve">
<style type="text/css">
	.st0{fill:#874691;}
	.st1{fill:#DA1844;}
	.st2{fill:#F9B229;}
	.st3{fill:#F07F1A;}
	.st4{fill:#72B22C;}
	.st5{fill:#00743E;}
	.st6{fill:#5F5A94;}
	.st7{fill:#0D90CD;}
</style>
<g>
	<g transform="translate(312,48) scale(4.12)">
		<rect x="-1.7" y="-6" width="6.4" height="6.4"/>
	</g>
	<g transform="translate(432,48) scale(4.12)">
		<rect x="0.2" y="-6" width="6.4" height="6.4"/>
	</g>
	<g transform="translate(504,48) scale(4.12)">
		<rect x="1.3" y="-6" width="6.4" height="6.4"/>
	</g>
	<g transform="translate(528,48) scale(4.12)">
		<rect x="1.6" y="-6" width="6.4" height="6.4"/>
	</g>
	<g transform="translate(576,48) scale(4.12)">
		<rect x="2.4" y="-6" width="6.4" height="6.4"/>
	</g>
	<g transform="translate(600,48) scale(4.12)">
		<rect x="2.8" y="-6" width="6.4" height="6.4"/>
	</g>
	<g transform="translate(264,72) scale(4.12)">
		<rect x="-2.4" y="-5.6" width="6.4" height="6.4"/>
	</g>
	<g transform="translate(408,72) scale(4.12)">
		<rect x="-0.2" y="-5.6" width="6.4" height="6.4"/>
	</g>
	<g transform="translate(480,72) scale(4.12)">
		<rect x="0.9" y="-5.6" width="6.4" height="6.4"/>
	</g>
	<g transform="translate(528,72) scale(4.12)">
		<rect x="1.6" y="-5.6" width="6.4" height="6.4"/>
	</g>
	<g transform="translate(552,72) scale(4.12)">
		<rect x="2" y="-5.6" width="6.4" height="6.4"/>
	</g>
	<g transform="translate(576,72) scale(4.12)">
		<rect x="2.4" y="-5.6" width="6.4" height="6.4"/>
	</g>
	<g transform="translate(624,72) scale(4.12)">
		<rect x="3.1" y="-5.6" width="6.4" height="6.4"/>
	</g>
	<g transform="translate(240,96) scale(4.12)">
		<rect x="-2.8" y="-5.2" width="6.4" height="6.4"/>
	</g>
	<g transform="translate(288,96) scale(4.12)">
		<rect x="-2.1" y="-5.2" width="6.4" height="6.4"/>
	</g>
	<g transform="translate(312,96) scale(4.12)">
		<rect x="-1.7" y="-5.2" width="6.4" height="6.4"/>
	</g>
	<g transform="translate(336,96) scale(4.12)">
		<rect x="-1.3" y="-5.2" width="6.4" height="6.4"/>
	</g>
	<g transform="translate(384,96) scale(4.12)">
		<rect x="-0.6" y="-5.2" width="6.4" height="6.4"/>
	</g>
	<g transform="translate(408,96) scale(4.12)">
		<rect x="-0.2" y="-5.2" width="6.4" height="6.4"/>
	</g>
	<g transform="translate(432,96) scale(4.12)">
		<rect x="0.2" y="-5.2" width="6.4" height="6.4"/>
	</g>
	<g transform="translate(552,96) scale(4.12)">
		<rect x="2" y="-5.2" width="6.4" height="6.4"/>
	</g>
	<g transform="translate(576,96) scale(4.12)">
		<rect x="2.4" y="-5.2" width="6.4" height="6.4"/>
	</g>
	<g transform="translate(600,96) scale(4.12)">
		<rect x="2.8" y="-5.2" width="6.4" height="6.4"/>
	</g>
	<g transform="translate(240,120) scale(4.12)">
		<rect x="-2.8" y="-4.8" width="6.4" height="6.4"/>
	</g>
	<g transform="translate(264,120) scale(4.12)">
		<rect x="-2.4" y="-4.8" width="6.4" height="6.4"/>
	</g>
	<g transform="translate(288,120) scale(4.12)">
		<rect x="-2.1" y="-4.8" width="6.4" height="6.4"/>
	</g>
	<g transform="translate(312,120) scale(4.12)">
		<rect x="-1.7" y="-4.8" width="6.4" height="6.4"/>
	</g>
	<g transform="translate(336,120) scale(4.12)">
		<rect x="-1.3" y="-4.8" width="6.4" height="6.4"/>
	</g>
	<g transform="translate(480,120) scale(4.12)">
		<rect x="0.9" y="-4.8" width="6.4" height="6.4"/>
	</g>
	<g transform="translate(552,120) scale(4.12)">
		<rect x="2" y="-4.8" width="6.4" height="6.4"/>
	</g>
	<g transform="translate(600,120) scale(4.12)">
		<rect x="2.8" y="-4.8" width="6.4" height="6.4"/>
	</g>
	<g transform="translate(240,144) scale(4.12)">
		<rect x="-2.8" y="-4.5" width="6.4" height="6.4"/>
	</g>
	<g transform="translate(264,144) scale(4.12)">
		<rect x="-2.4" y="-4.5" width="6.4" height="6.4"/>
	</g>
	<g transform="translate(336,144) scale(4.12)">
		<rect x="-1.3" y="-4.5" width="6.4" height="6.4"/>
	</g>
	<g transform="translate(360,144) scale(4.12)">
		<rect x="-0.9" y="-4.5" width="6.4" height="6.4"/>
	</g>
	<g transform="translate(384,144) scale(4.12)">
		<rect x="-0.6" y="-4.5" width="6.4" height="6.4"/>
	</g>
	<g transform="translate(408,144) scale(4.12)">
		<rect x="-0.2" y="-4.5" width="6.4" height="6.4"/>
	</g>
	<g transform="translate(432,144) scale(4.12)">
		<rect x="0.2" y="-4.5" width="6.4" height="6.4"/>
	</g>
	<g transform="translate(528,144) scale(4.12)">
		<rect x="1.6" y="-4.5" width="6.4" height="6.4"/>
	</g>
	<g transform="translate(552,144) scale(4.12)">
		<rect x="2" y="-4.5" width="6.4" height="6.4"/>
	</g>
	<g transform="translate(576,144) scale(4.12)">
		<rect x="2.4" y="-4.5" width="6.4" height="6.4"/>
	</g>
	<g transform="translate(600,144) scale(4.12)">
		<rect x="2.8" y="-4.5" width="6.4" height="6.4"/>
	</g>
	<g transform="translate(624,144) scale(4.12)">
		<rect x="3.1" y="-4.5" width="6.4" height="6.4"/>
	</g>
	<g transform="translate(240,168) scale(4.12)">
		<rect x="-2.8" y="-4.1" width="6.4" height="6.4"/>
	</g>
	<g transform="translate(312,168) scale(4.12)">
		<rect x="-1.7" y="-4.1" width="6.4" height="6.4"/>
	</g>
	<g transform="translate(336,168) scale(4.12)">
		<rect x="-1.3" y="-4.1" width="6.4" height="6.4"/>
	</g>
	<g transform="translate(480,168) scale(4.12)">
		<rect x="0.9" y="-4.1" width="6.4" height="6.4"/>
	</g>
	<g transform="translate(504,168) scale(4.12)">
		<rect x="1.3" y="-4.1" width="6.4" height="6.4"/>
	</g>
	<g transform="translate(600,168) scale(4.12)">
		<rect x="2.8" y="-4.1" width="6.4" height="6.4"/>
	</g>
	<g transform="translate(624,168) scale(4.12)">
		<rect x="3.1" y="-4.1" width="6.4" height="6.4"/>
	</g>
	<g transform="translate(240,192) scale(4.12)">
		<rect x="-2.8" y="-3.7" width="6.4" height="6.4"/>
	</g>
	<g transform="translate(288,192) scale(4.12)">
		<rect x="-2.1" y="-3.7" width="6.4" height="6.4"/>
	</g>
	<g transform="translate(336,192) scale(4.12)">
		<rect x="-1.3" y="-3.7" width="6.4" height="6.4"/>
	</g>
	<g transform="translate(384,192) scale(4.12)">
		<rect x="-0.6" y="-3.7" width="6.4" height="6.4"/>
	</g>
	<g transform="translate(432,192) scale(4.12)">
		<rect x="0.2" y="-3.7" width="6.4" height="6.4"/>
	</g>
	<g transform="translate(480,192) scale(4.12)">
		<rect x="0.9" y="-3.7" width="6.4" height="6.4"/>
	</g>
	<g transform="translate(528,192) scale(4.12)">
		<rect x="1.6" y="-3.7" width="6.4" height="6.4"/>
	</g>
	<g transform="translate(576,192) scale(4.12)">
		<rect x="2.4" y="-3.7" width="6.4" height="6.4"/>
	</g>
	<g transform="translate(624,192) scale(4.12)">
		<rect x="3.1" y="-3.7" width="6.4" height="6.4"/>
	</g>
	<g transform="translate(240,216) scale(4.12)">
		<rect x="-2.8" y="-3.4" width="6.4" height="6.4"/>
	</g>
	<g transform="translate(288,216) scale(4.12)">
		<rect x="-2.1" y="-3.4" width="6.4" height="6.4"/>
	</g>
	<g transform="translate(312,216) scale(4.12)">
		<rect x="-1.7" y="-3.4" width="6.4" height="6.4"/>
	</g>
	<g transform="translate(336,216) scale(4.12)">
		<rect x="-1.3" y="-3.4" width="6.4" height="6.4"/>
	</g>
	<g transform="translate(384,216) scale(4.12)">
		<rect x="-0.6" y="-3.4" width="6.4" height="6.4"/>
	</g>
	<g transform="translate(432,216) scale(4.12)">
		<rect x="0.2" y="-3.4" width="6.4" height="6.4"/>
	</g>
	<g transform="translate(480,216) scale(4.12)">
		<rect x="0.9" y="-3.4" width="6.4" height="6.4"/>
	</g>
	<g transform="translate(504,216) scale(4.12)">
		<rect x="1.3" y="-3.4" width="6.4" height="6.4"/>
	</g>
	<g transform="translate(528,216) scale(4.12)">
		<rect x="1.6" y="-3.4" width="6.4" height="6.4"/>
	</g>
	<g transform="translate(552,216) scale(4.12)">
		<rect x="2" y="-3.4" width="6.4" height="6.4"/>
	</g>
	<g transform="translate(576,216) scale(4.12)">
		<rect x="2.4" y="-3.4" width="6.4" height="6.4"/>
	</g>
	<g transform="translate(48,240) scale(4.12)">
		<rect x="-5.8" y="-3" width="6.4" height="6.4"/>
	</g>
	<g transform="translate(96,240) scale(4.12)">
		<rect x="-5" y="-3" width="6.4" height="6.4"/>
	</g>
	<g transform="translate(120,240) scale(4.12)">
		<rect x="-4.6" y="-3" width="6.4" height="6.4"/>
	</g>
	<g transform="translate(144,240) scale(4.12)">
		<rect x="-4.3" y="-3" width="6.4" height="6.4"/>
	</g>
	<g transform="translate(168,240) scale(4.12)">
		<rect x="-3.9" y="-3" width="6.4" height="6.4"/>
	</g>
	<g transform="translate(192,240) scale(4.12)">
		<rect x="-3.5" y="-3" width="6.4" height="6.4"/>
	</g>
	<g transform="translate(264,240) scale(4.12)">
		<rect x="-2.4" y="-3" width="6.4" height="6.4"/>
	</g>
	<g transform="translate(288,240) scale(4.12)">
		<rect x="-2.1" y="-3" width="6.4" height="6.4"/>
	</g>
	<g transform="translate(360,240) scale(4.12)">
		<rect x="-0.9" y="-3" width="6.4" height="6.4"/>
	</g>
	<g transform="translate(384,240) scale(4.12)">
		<rect x="-0.6" y="-3" width="6.4" height="6.4"/>
	</g>
	<g transform="translate(456,240) scale(4.12)">
		<rect x="0.5" y="-3" width="6.4" height="6.4"/>
	</g>
	<g transform="translate(504,240) scale(4.12)">
		<rect x="1.3" y="-3" width="6.4" height="6.4"/>
	</g>
	<g transform="translate(576,240) scale(4.12)">
		<rect x="2.4" y="-3" width="6.4" height="6.4"/>
	</g>
	<g transform="translate(624,240) scale(4.12)">
		<rect x="3.1" y="-3" width="6.4" height="6.4"/>
	</g>
	<g transform="translate(672,240) scale(4.12)">
		<rect x="3.9" y="-3" width="6.4" height="6.4"/>
	</g>
	<g transform="translate(696,240) scale(4.12)">
		<rect x="4.2" y="-3" width="6.4" height="6.4"/>
	</g>
	<g transform="translate(720,240) scale(4.12)">
		<rect x="4.6" y="-3" width="6.4" height="6.4"/>
	</g>
	<g transform="translate(744,240) scale(4.12)">
		<rect x="5" y="-3" width="6.4" height="6.4"/>
	</g>
	<g transform="translate(768,240) scale(4.12)">
		<rect x="5.3" y="-3" width="6.4" height="6.4"/>
	</g>
	<g transform="translate(120,264) scale(4.12)">
		<rect x="-4.6" y="-2.6" width="6.4" height="6.4"/>
	</g>
	<g transform="translate(216,264) scale(4.12)">
		<rect x="-3.2" y="-2.6" width="6.4" height="6.4"/>
	</g>
	<g transform="translate(240,264) scale(4.12)">
		<rect x="-2.8" y="-2.6" width="6.4" height="6.4"/>
	</g>
	<g transform="translate(264,264) scale(4.12)">
		<rect x="-2.4" y="-2.6" width="6.4" height="6.4"/>
	</g>
	<g transform="translate(288,264) scale(4.12)">
		<rect x="-2.1" y="-2.6" width="6.4" height="6.4"/>
	</g>
	<g transform="translate(312,264) scale(4.12)">
		<rect x="-1.7" y="-2.6" width="6.4" height="6.4"/>
	</g>
	<g transform="translate(360,264) scale(4.12)">
		<rect x="-0.9" y="-2.6" width="6.4" height="6.4"/>
	</g>
	<g transform="translate(432,264) scale(4.12)">
		<rect x="0.2" y="-2.6" width="6.4" height="6.4"/>
	</g>
	<g transform="translate(456,264) scale(4.12)">
		<rect x="0.5" y="-2.6" width="6.4" height="6.4"/>
	</g>
	<g transform="translate(480,264) scale(4.12)">
		<rect x="0.9" y="-2.6" width="6.4" height="6.4"/>
	</g>
	<g transform="translate(504,264) scale(4.12)">
		<rect x="1.3" y="-2.6" width="6.4" height="6.4"/>
	</g>
	<g transform="translate(528,264) scale(4.12)">
		<rect x="1.6" y="-2.6" width="6.4" height="6.4"/>
	</g>
	<g transform="translate(576,264) scale(4.12)">
		<rect x="2.4" y="-2.6" width="6.4" height="6.4"/>
	</g>
	<g transform="translate(600,264) scale(4.12)">
		<rect x="2.8" y="-2.6" width="6.4" height="6.4"/>
	</g>
	<g transform="translate(672,264) scale(4.12)">
		<rect x="3.9" y="-2.6" width="6.4" height="6.4"/>
	</g>
	<g transform="translate(696,264) scale(4.12)">
		<rect x="4.2" y="-2.6" width="6.4" height="6.4"/>
	</g>
	<g transform="translate(744,264) scale(4.12)">
		<rect x="5" y="-2.6" width="6.4" height="6.4"/>
	</g>
	<g transform="translate(768,264) scale(4.12)">
		<rect x="5.3" y="-2.6" width="6.4" height="6.4"/>
	</g>
	<g transform="translate(792,264) scale(4.12)">
		<rect x="5.7" y="-2.6" width="6.4" height="6.4"/>
	</g>
	<g transform="translate(816,264) scale(4.12)">
		<rect x="6.1" y="-2.6" width="6.4" height="6.4"/>
	</g>
	<g transform="translate(48,288) scale(4.12)">
		<rect x="-5.8" y="-2.3" width="6.4" height="6.4"/>
	</g>
	<g transform="translate(96,288) scale(4.12)">
		<rect x="-5" y="-2.3" width="6.4" height="6.4"/>
	</g>
	<g transform="translate(144,288) scale(4.12)">
		<rect x="-4.3" y="-2.3" width="6.4" height="6.4"/>
	</g>
	<g transform="translate(192,288) scale(4.12)">
		<rect x="-3.5" y="-2.3" width="6.4" height="6.4"/>
	</g>
	<g transform="translate(216,288) scale(4.12)">
		<rect x="-3.2" y="-2.3" width="6.4" height="6.4"/>
	</g>
	<g transform="translate(240,288) scale(4.12)">
		<rect x="-2.8" y="-2.3" width="6.4" height="6.4"/>
	</g>
	<g transform="translate(288,288) scale(4.12)">
		<rect x="-2.1" y="-2.3" width="6.4" height="6.4"/>
	</g>
	<g transform="translate(312,288) scale(4.12)">
		<rect x="-1.7" y="-2.3" width="6.4" height="6.4"/>
	</g>
	<g transform="translate(360,288) scale(4.12)">
		<rect x="-0.9" y="-2.3" width="6.4" height="6.4"/>
	</g>
	<g transform="translate(384,288) scale(4.12)">
		<rect x="-0.6" y="-2.3" width="6.4" height="6.4"/>
	</g>
	<g transform="translate(408,288) scale(4.12)">
		<rect x="-0.2" y="-2.3" width="6.4" height="6.4"/>
	</g>
	<g transform="translate(432,288) scale(4.12)">
		<rect x="0.2" y="-2.3" width="6.4" height="6.4"/>
	</g>
	<g transform="translate(456,288) scale(4.12)">
		<rect x="0.5" y="-2.3" width="6.4" height="6.4"/>
	</g>
	<g transform="translate(528,288) scale(4.12)">
		<rect x="1.6" y="-2.3" width="6.4" height="6.4"/>
	</g>
	<g transform="translate(576,288) scale(4.12)">
		<rect x="2.4" y="-2.3" width="6.4" height="6.4"/>
	</g>
	<g transform="translate(624,288) scale(4.12)">
		<rect x="3.1" y="-2.3" width="6.4" height="6.4"/>
	</g>
	<g transform="translate(648,288) scale(4.12)">
		<rect x="3.5" y="-2.3" width="6.4" height="6.4"/>
	</g>
	<g transform="translate(720,288) scale(4.12)">
		<rect x="4.6" y="-2.3" width="6.4" height="6.4"/>
	</g>
	<g transform="translate(768,288) scale(4.12)">
		<rect x="5.3" y="-2.3" width="6.4" height="6.4"/>
	</g>
	<g transform="translate(48,312) scale(4.12)">
		<rect x="-5.8" y="-1.9" width="6.4" height="6.4"/>
	</g>
	<g transform="translate(72,312) scale(4.12)">
		<rect x="-5.4" y="-1.9" width="6.4" height="6.4"/>
	</g>
	<g transform="translate(96,312) scale(4.12)">
		<rect x="-5" y="-1.9" width="6.4" height="6.4"/>
	</g>
	<g transform="translate(144,312) scale(4.12)">
		<rect x="-4.3" y="-1.9" width="6.4" height="6.4"/>
	</g>
	<g transform="translate(264,312) scale(4.12)">
		<rect x="-2.4" y="-1.9" width="6.4" height="6.4"/>
	</g>
	<g transform="translate(288,312) scale(4.12)">
		<rect x="-2.1" y="-1.9" width="6.4" height="6.4"/>
	</g>
	<g transform="translate(336,312) scale(4.12)">
		<rect x="-1.3" y="-1.9" width="6.4" height="6.4"/>
	</g>
	<g transform="translate(360,312) scale(4.12)">
		<rect x="-0.9" y="-1.9" width="6.4" height="6.4"/>
	</g>
	<g transform="translate(456,312) scale(4.12)">
		<rect x="0.5" y="-1.9" width="6.4" height="6.4"/>
	</g>
	<g transform="translate(480,312) scale(4.12)">
		<rect x="0.9" y="-1.9" width="6.4" height="6.4"/>
	</g>
	<g transform="translate(504,312) scale(4.12)">
		<rect x="1.3" y="-1.9" width="6.4" height="6.4"/>
	</g>
	<g transform="translate(528,312) scale(4.12)">
		<rect x="1.6" y="-1.9" width="6.4" height="6.4"/>
	</g>
	<g transform="translate(552,312) scale(4.12)">
		<rect x="2" y="-1.9" width="6.4" height="6.4"/>
	</g>
	<g transform="translate(600,312) scale(4.12)">
		<rect x="2.8" y="-1.9" width="6.4" height="6.4"/>
	</g>
	<g transform="translate(648,312) scale(4.12)">
		<rect x="3.5" y="-1.9" width="6.4" height="6.4"/>
	</g>
	<g transform="translate(720,312) scale(4.12)">
		<rect x="4.6" y="-1.9" width="6.4" height="6.4"/>
	</g>
	<g transform="translate(744,312) scale(4.12)">
		<rect x="5" y="-1.9" width="6.4" height="6.4"/>
	</g>
	<g transform="translate(768,312) scale(4.12)">
		<rect x="5.3" y="-1.9" width="6.4" height="6.4"/>
	</g>
	<g transform="translate(120,336) scale(4.12)">
		<rect x="-4.6" y="-1.5" width="6.4" height="6.4"/>
	</g>
	<g transform="translate(144,336) scale(4.12)">
		<rect x="-4.3" y="-1.5" width="6.4" height="6.4"/>
	</g>
	<g transform="translate(192,336) scale(4.12)">
		<rect x="-3.5" y="-1.5" width="6.4" height="6.4"/>
	</g>
	<g transform="translate(240,336) scale(4.12)">
		<rect x="-2.8" y="-1.5" width="6.4" height="6.4"/>
	</g>
	<g transform="translate(264,336) scale(4.12)">
		<rect x="-2.4" y="-1.5" width="6.4" height="6.4"/>
	</g>
	<g transform="translate(288,336) scale(4.12)">
		<rect x="-2.1" y="-1.5" width="6.4" height="6.4"/>
	</g>
	<g transform="translate(312,336) scale(4.12)">
		<rect x="-1.7" y="-1.5" width="6.4" height="6.4"/>
	</g>
	<g transform="translate(600,336) scale(4.12)">
		<rect x="2.8" y="-1.5" width="6.4" height="6.4"/>
	</g>
	<g transform="translate(648,336) scale(4.12)">
		<rect x="3.5" y="-1.5" width="6.4" height="6.4"/>
	</g>
	<g transform="translate(720,336) scale(4.12)">
		<rect x="4.6" y="-1.5" width="6.4" height="6.4"/>
	</g>
	<g transform="translate(744,336) scale(4.12)">
		<rect x="5" y="-1.5" width="6.4" height="6.4"/>
	</g>
	<g transform="translate(792,336) scale(4.12)">
		<rect x="5.7" y="-1.5" width="6.4" height="6.4"/>
	</g>
	<g transform="translate(816,336) scale(4.12)">
		<rect x="6.1" y="-1.5" width="6.4" height="6.4"/>
	</g>
	<g transform="translate(96,360) scale(4.12)">
		<rect x="-5" y="-1.1" width="6.4" height="6.4"/>
	</g>
	<g transform="translate(144,360) scale(4.12)">
		<rect x="-4.3" y="-1.1" width="6.4" height="6.4"/>
	</g>
	<g transform="translate(240,360) scale(4.12)">
		<rect x="-2.8" y="-1.1" width="6.4" height="6.4"/>
	</g>
	<g transform="translate(264,360) scale(4.12)">
		<rect x="-2.4" y="-1.1" width="6.4" height="6.4"/>
	</g>
	<g transform="translate(552,360) scale(4.12)">
		<rect x="2" y="-1.1" width="6.4" height="6.4"/>
	</g>
	<g transform="translate(624,360) scale(4.12)">
		<rect x="3.1" y="-1.1" width="6.4" height="6.4"/>
	</g>
	<g transform="translate(648,360) scale(4.12)">
		<rect x="3.5" y="-1.1" width="6.4" height="6.4"/>
	</g>
	<g transform="translate(672,360) scale(4.12)">
		<rect x="3.9" y="-1.1" width="6.4" height="6.4"/>
	</g>
	<g transform="translate(744,360) scale(4.12)">
		<rect x="5" y="-1.1" width="6.4" height="6.4"/>
	</g>
	<g transform="translate(768,360) scale(4.12)">
		<rect x="5.3" y="-1.1" width="6.4" height="6.4"/>
	</g>
	<g transform="translate(792,360) scale(4.12)">
		<rect x="5.7" y="-1.1" width="6.4" height="6.4"/>
	</g>
	<g transform="translate(816,360) scale(4.12)">
		<rect x="6.1" y="-1.1" width="6.4" height="6.4"/>
	</g>
	<g transform="translate(168,384) scale(4.12)">
		<rect x="-3.9" y="-0.8" width="6.4" height="6.4"/>
	</g>
	<g transform="translate(192,384) scale(4.12)">
		<rect x="-3.5" y="-0.8" width="6.4" height="6.4"/>
	</g>
	<g transform="translate(240,384) scale(4.12)">
		<rect x="-2.8" y="-0.8" width="6.4" height="6.4"/>
	</g>
	<g transform="translate(264,384) scale(4.12)">
		<rect x="-2.4" y="-0.8" width="6.4" height="6.4"/>
	</g>
	<g transform="translate(288,384) scale(4.12)">
		<rect x="-2.1" y="-0.8" width="6.4" height="6.4"/>
	</g>
	<g transform="translate(552,384) scale(4.12)">
		<rect x="2" y="-0.8" width="6.4" height="6.4"/>
	</g>
	<g transform="translate(648,384) scale(4.12)">
		<rect x="3.5" y="-0.8" width="6.4" height="6.4"/>
	</g>
	<g transform="translate(672,384) scale(4.12)">
		<rect x="3.9" y="-0.8" width="6.4" height="6.4"/>
	</g>
	<g transform="translate(744,384) scale(4.12)">
		<rect x="5" y="-0.8" width="6.4" height="6.4"/>
	</g>
	<g transform="translate(768,384) scale(4.12)">
		<rect x="5.3" y="-0.8" width="6.4" height="6.4"/>
	</g>
	<g transform="translate(792,384) scale(4.12)">
		<rect x="5.7" y="-0.8" width="6.4" height="6.4"/>
	</g>
	<g transform="translate(48,408) scale(4.12)">
		<rect x="-5.8" y="-0.4" width="6.4" height="6.4"/>
	</g>
	<g transform="translate(120,408) scale(4.12)">
		<rect x="-4.6" y="-0.4" width="6.4" height="6.4"/>
	</g>
	<g transform="translate(144,408) scale(4.12)">
		<rect x="-4.3" y="-0.4" width="6.4" height="6.4"/>
	</g>
	<g transform="translate(216,408) scale(4.12)">
		<rect x="-3.2" y="-0.4" width="6.4" height="6.4"/>
	</g>
	<g transform="translate(240,408) scale(4.12)">
		<rect x="-2.8" y="-0.4" width="6.4" height="6.4"/>
	</g>
	<g transform="translate(264,408) scale(4.12)">
		<rect x="-2.4" y="-0.4" width="6.4" height="6.4"/>
	</g>
	<g transform="translate(312,408) scale(4.12)">
		<rect x="-1.7" y="-0.4" width="6.4" height="6.4"/>
	</g>
	<g transform="translate(552,408) scale(4.12)">
		<rect x="2" y="-0.4" width="6.4" height="6.4"/>
	</g>
	<g transform="translate(600,408) scale(4.12)">
		<rect x="2.8" y="-0.4" width="6.4" height="6.4"/>
	</g>
	<g transform="translate(624,408) scale(4.12)">
		<rect x="3.1" y="-0.4" width="6.4" height="6.4"/>
	</g>
	<g transform="translate(648,408) scale(4.12)">
		<rect x="3.5" y="-0.4" width="6.4" height="6.4"/>
	</g>
	<g transform="translate(672,408) scale(4.12)">
		<rect x="3.9" y="-0.4" width="6.4" height="6.4"/>
	</g>
	<g transform="translate(744,408) scale(4.12)">
		<rect x="5" y="-0.4" width="6.4" height="6.4"/>
	</g>
	<g transform="translate(768,408) scale(4.12)">
		<rect x="5.3" y="-0.4" width="6.4" height="6.4"/>
	</g>
	<g transform="translate(96,432) scale(4.12)">
		<rect x="-5" y="0" width="6.4" height="6.4"/>
	</g>
	<g transform="translate(144,432) scale(4.12)">
		<rect x="-4.3" y="0" width="6.4" height="6.4"/>
	</g>
	<g transform="translate(168,432) scale(4.12)">
		<rect x="-3.9" y="0" width="6.4" height="6.4"/>
	</g>
	<g transform="translate(192,432) scale(4.12)">
		<rect x="-3.5" y="0" width="6.4" height="6.4"/>
	</g>
	<g transform="translate(216,432) scale(4.12)">
		<rect x="-3.2" y="0" width="6.4" height="6.4"/>
	</g>
	<g transform="translate(240,432) scale(4.12)">
		<rect x="-2.8" y="0" width="6.4" height="6.4"/>
	</g>
	<g transform="translate(264,432) scale(4.12)">
		<rect x="-2.4" y="0" width="6.4" height="6.4"/>
	</g>
	<g transform="translate(312,432) scale(4.12)">
		<rect x="-1.7" y="0" width="6.4" height="6.4"/>
	</g>
	<g transform="translate(576,432) scale(4.12)">
		<rect x="2.4" y="0" width="6.4" height="6.4"/>
	</g>
	<g transform="translate(600,432) scale(4.12)">
		<rect x="2.8" y="0" width="6.4" height="6.4"/>
	</g>
	<g transform="translate(624,432) scale(4.12)">
		<rect x="3.1" y="0" width="6.4" height="6.4"/>
	</g>
	<g transform="translate(648,432) scale(4.12)">
		<rect x="3.5" y="0" width="6.4" height="6.4"/>
	</g>
	<g transform="translate(696,432) scale(4.12)">
		<rect x="4.2" y="0" width="6.4" height="6.4"/>
	</g>
	<g transform="translate(720,432) scale(4.12)">
		<rect x="4.6" y="0" width="6.4" height="6.4"/>
	</g>
	<g transform="translate(816,432) scale(4.12)">
		<rect x="6.1" y="0" width="6.4" height="6.4"/>
	</g>
	<g transform="translate(72,456) scale(4.12)">
		<rect x="-5.4" y="0.3" width="6.4" height="6.4"/>
	</g>
	<g transform="translate(96,456) scale(4.12)">
		<rect x="-5" y="0.3" width="6.4" height="6.4"/>
	</g>
	<g transform="translate(144,456) scale(4.12)">
		<rect x="-4.3" y="0.3" width="6.4" height="6.4"/>
	</g>
	<g transform="translate(240,456) scale(4.12)">
		<rect x="-2.8" y="0.3" width="6.4" height="6.4"/>
	</g>
	<g transform="translate(288,456) scale(4.12)">
		<rect x="-2.1" y="0.3" width="6.4" height="6.4"/>
	</g>
	<g transform="translate(552,456) scale(4.12)">
		<rect x="2" y="0.3" width="6.4" height="6.4"/>
	</g>
	<g transform="translate(600,456) scale(4.12)">
		<rect x="2.8" y="0.3" width="6.4" height="6.4"/>
	</g>
	<g transform="translate(624,456) scale(4.12)">
		<rect x="3.1" y="0.3" width="6.4" height="6.4"/>
	</g>
	<g transform="translate(648,456) scale(4.12)">
		<rect x="3.5" y="0.3" width="6.4" height="6.4"/>
	</g>
	<g transform="translate(672,456) scale(4.12)">
		<rect x="3.9" y="0.3" width="6.4" height="6.4"/>
	</g>
	<g transform="translate(696,456) scale(4.12)">
		<rect x="4.2" y="0.3" width="6.4" height="6.4"/>
	</g>
	<g transform="translate(744,456) scale(4.12)">
		<rect x="5" y="0.3" width="6.4" height="6.4"/>
	</g>
	<g transform="translate(768,456) scale(4.12)">
		<rect x="5.3" y="0.3" width="6.4" height="6.4"/>
	</g>
	<g transform="translate(816,456) scale(4.12)">
		<rect x="6.1" y="0.3" width="6.4" height="6.4"/>
	</g>
	<g transform="translate(48,480) scale(4.12)">
		<rect x="-5.8" y="0.7" width="6.4" height="6.4"/>
	</g>
	<g transform="translate(72,480) scale(4.12)">
		<rect x="-5.4" y="0.7" width="6.4" height="6.4"/>
	</g>
	<g transform="translate(120,480) scale(4.12)">
		<rect x="-4.6" y="0.7" width="6.4" height="6.4"/>
	</g>
	<g transform="translate(168,480) scale(4.12)">
		<rect x="-3.9" y="0.7" width="6.4" height="6.4"/>
	</g>
	<g transform="translate(192,480) scale(4.12)">
		<rect x="-3.5" y="0.7" width="6.4" height="6.4"/>
	</g>
	<g transform="translate(216,480) scale(4.12)">
		<rect x="-3.2" y="0.7" width="6.4" height="6.4"/>
	</g>
	<g transform="translate(240,480) scale(4.12)">
		<rect x="-2.8" y="0.7" width="6.4" height="6.4"/>
	</g>
	<g transform="translate(264,480) scale(4.12)">
		<rect x="-2.4" y="0.7" width="6.4" height="6.4"/>
	</g>
	<g transform="translate(288,480) scale(4.12)">
		<rect x="-2.1" y="0.7" width="6.4" height="6.4"/>
	</g>
	<g transform="translate(576,480) scale(4.12)">
		<rect x="2.4" y="0.7" width="6.4" height="6.4"/>
	</g>
	<g transform="translate(624,480) scale(4.12)">
		<rect x="3.1" y="0.7" width="6.4" height="6.4"/>
	</g>
	<g transform="translate(696,480) scale(4.12)">
		<rect x="4.2" y="0.7" width="6.4" height="6.4"/>
	</g>
	<g transform="translate(720,480) scale(4.12)">
		<rect x="4.6" y="0.7" width="6.4" height="6.4"/>
	</g>
	<g transform="translate(768,480) scale(4.12)">
		<rect x="5.3" y="0.7" width="6.4" height="6.4"/>
	</g>
	<g transform="translate(792,480) scale(4.12)">
		<rect x="5.7" y="0.7" width="6.4" height="6.4"/>
	</g>
	<g transform="translate(48,504) scale(4.12)">
		<rect x="-5.8" y="1.1" width="6.4" height="6.4"/>
	</g>
	<g transform="translate(72,504) scale(4.12)">
		<rect x="-5.4" y="1.1" width="6.4" height="6.4"/>
	</g>
	<g transform="translate(120,504) scale(4.12)">
		<rect x="-4.6" y="1.1" width="6.4" height="6.4"/>
	</g>
	<g transform="translate(168,504) scale(4.12)">
		<rect x="-3.9" y="1.1" width="6.4" height="6.4"/>
	</g>
	<g transform="translate(240,504) scale(4.12)">
		<rect x="-2.8" y="1.1" width="6.4" height="6.4"/>
	</g>
	<g transform="translate(288,504) scale(4.12)">
		<rect x="-2.1" y="1.1" width="6.4" height="6.4"/>
	</g>
	<g transform="translate(552,504) scale(4.12)">
		<rect x="2" y="1.1" width="6.4" height="6.4"/>
	</g>
	<g transform="translate(576,504) scale(4.12)">
		<rect x="2.4" y="1.1" width="6.4" height="6.4"/>
	</g>
	<g transform="translate(624,504) scale(4.12)">
		<rect x="3.1" y="1.1" width="6.4" height="6.4"/>
	</g>
	<g transform="translate(648,504) scale(4.12)">
		<rect x="3.5" y="1.1" width="6.4" height="6.4"/>
	</g>
	<g transform="translate(696,504) scale(4.12)">
		<rect x="4.2" y="1.1" width="6.4" height="6.4"/>
	</g>
	<g transform="translate(720,504) scale(4.12)">
		<rect x="4.6" y="1.1" width="6.4" height="6.4"/>
	</g>
	<g transform="translate(744,504) scale(4.12)">
		<rect x="5" y="1.1" width="6.4" height="6.4"/>
	</g>
	<g transform="translate(768,504) scale(4.12)">
		<rect x="5.3" y="1.1" width="6.4" height="6.4"/>
	</g>
	<g transform="translate(792,504) scale(4.12)">
		<rect x="5.7" y="1.1" width="6.4" height="6.4"/>
	</g>
	<g transform="translate(48,528) scale(4.12)">
		<rect x="-5.8" y="1.4" width="6.4" height="6.4"/>
	</g>
	<g transform="translate(192,528) scale(4.12)">
		<rect x="-3.5" y="1.4" width="6.4" height="6.4"/>
	</g>
	<g transform="translate(216,528) scale(4.12)">
		<rect x="-3.2" y="1.4" width="6.4" height="6.4"/>
	</g>
	<g transform="translate(240,528) scale(4.12)">
		<rect x="-2.8" y="1.4" width="6.4" height="6.4"/>
	</g>
	<g transform="translate(264,528) scale(4.12)">
		<rect x="-2.4" y="1.4" width="6.4" height="6.4"/>
	</g>
	<g transform="translate(288,528) scale(4.12)">
		<rect x="-2.1" y="1.4" width="6.4" height="6.4"/>
	</g>
	<g transform="translate(552,528) scale(4.12)">
		<rect x="2" y="1.4" width="6.4" height="6.4"/>
	</g>
	<g transform="translate(624,528) scale(4.12)">
		<rect x="3.1" y="1.4" width="6.4" height="6.4"/>
	</g>
	<g transform="translate(648,528) scale(4.12)">
		<rect x="3.5" y="1.4" width="6.4" height="6.4"/>
	</g>
	<g transform="translate(696,528) scale(4.12)">
		<rect x="4.2" y="1.4" width="6.4" height="6.4"/>
	</g>
	<g transform="translate(720,528) scale(4.12)">
		<rect x="4.6" y="1.4" width="6.4" height="6.4"/>
	</g>
	<g transform="translate(744,528) scale(4.12)">
		<rect x="5" y="1.4" width="6.4" height="6.4"/>
	</g>
	<g transform="translate(792,528) scale(4.12)">
		<rect x="5.7" y="1.4" width="6.4" height="6.4"/>
	</g>
	<g transform="translate(816,528) scale(4.12)">
		<rect x="6.1" y="1.4" width="6.4" height="6.4"/>
	</g>
	<g transform="translate(48,552) scale(4.12)">
		<rect x="-5.8" y="1.8" width="6.4" height="6.4"/>
	</g>
	<g transform="translate(96,552) scale(4.12)">
		<rect x="-5" y="1.8" width="6.4" height="6.4"/>
	</g>
	<g transform="translate(144,552) scale(4.12)">
		<rect x="-4.3" y="1.8" width="6.4" height="6.4"/>
	</g>
	<g transform="translate(216,552) scale(4.12)">
		<rect x="-3.2" y="1.8" width="6.4" height="6.4"/>
	</g>
	<g transform="translate(240,552) scale(4.12)">
		<rect x="-2.8" y="1.8" width="6.4" height="6.4"/>
	</g>
	<g transform="translate(312,552) scale(4.12)">
		<rect x="-1.7" y="1.8" width="6.4" height="6.4"/>
	</g>
	<g transform="translate(336,552) scale(4.12)">
		<rect x="-1.3" y="1.8" width="6.4" height="6.4"/>
	</g>
	<g transform="translate(408,552) scale(4.12)">
		<rect x="-0.2" y="1.8" width="6.4" height="6.4"/>
	</g>
	<g transform="translate(432,552) scale(4.12)">
		<rect x="0.2" y="1.8" width="6.4" height="6.4"/>
	</g>
	<g transform="translate(456,552) scale(4.12)">
		<rect x="0.5" y="1.8" width="6.4" height="6.4"/>
	</g>
	<g transform="translate(528,552) scale(4.12)">
		<rect x="1.6" y="1.8" width="6.4" height="6.4"/>
	</g>
	<g transform="translate(600,552) scale(4.12)">
		<rect x="2.8" y="1.8" width="6.4" height="6.4"/>
	</g>
	<g transform="translate(624,552) scale(4.12)">
		<rect x="3.1" y="1.8" width="6.4" height="6.4"/>
	</g>
	<g transform="translate(648,552) scale(4.12)">
		<rect x="3.5" y="1.8" width="6.4" height="6.4"/>
	</g>
	<g transform="translate(672,552) scale(4.12)">
		<rect x="3.9" y="1.8" width="6.4" height="6.4"/>
	</g>
	<g transform="translate(744,552) scale(4.12)">
		<rect x="5" y="1.8" width="6.4" height="6.4"/>
	</g>
	<g transform="translate(816,552) scale(4.12)">
		<rect x="6.1" y="1.8" width="6.4" height="6.4"/>
	</g>
	<g transform="translate(48,576) scale(4.12)">
		<rect x="-5.8" y="2.2" width="6.4" height="6.4"/>
	</g>
	<g transform="translate(120,576) scale(4.12)">
		<rect x="-4.6" y="2.2" width="6.4" height="6.4"/>
	</g>
	<g transform="translate(192,576) scale(4.12)">
		<rect x="-3.5" y="2.2" width="6.4" height="6.4"/>
	</g>
	<g transform="translate(264,576) scale(4.12)">
		<rect x="-2.4" y="2.2" width="6.4" height="6.4"/>
	</g>
	<g transform="translate(288,576) scale(4.12)">
		<rect x="-2.1" y="2.2" width="6.4" height="6.4"/>
	</g>
	<g transform="translate(312,576) scale(4.12)">
		<rect x="-1.7" y="2.2" width="6.4" height="6.4"/>
	</g>
	<g transform="translate(360,576) scale(4.12)">
		<rect x="-0.9" y="2.2" width="6.4" height="6.4"/>
	</g>
	<g transform="translate(384,576) scale(4.12)">
		<rect x="-0.6" y="2.2" width="6.4" height="6.4"/>
	</g>
	<g transform="translate(456,576) scale(4.12)">
		<rect x="0.5" y="2.2" width="6.4" height="6.4"/>
	</g>
	<g transform="translate(504,576) scale(4.12)">
		<rect x="1.3" y="2.2" width="6.4" height="6.4"/>
	</g>
	<g transform="translate(624,576) scale(4.12)">
		<rect x="3.1" y="2.2" width="6.4" height="6.4"/>
	</g>
	<g transform="translate(696,576) scale(4.12)">
		<rect x="4.2" y="2.2" width="6.4" height="6.4"/>
	</g>
	<g transform="translate(720,576) scale(4.12)">
		<rect x="4.6" y="2.2" width="6.4" height="6.4"/>
	</g>
	<g transform="translate(744,576) scale(4.12)">
		<rect x="5" y="2.2" width="6.4" height="6.4"/>
	</g>
	<g transform="translate(768,576) scale(4.12)">
		<rect x="5.3" y="2.2" width="6.4" height="6.4"/>
	</g>
	<g transform="translate(792,576) scale(4.12)">
		<rect x="5.7" y="2.2" width="6.4" height="6.4"/>
	</g>
	<g transform="translate(48,600) scale(4.12)">
		<rect x="-5.8" y="2.6" width="6.4" height="6.4"/>
	</g>
	<g transform="translate(96,600) scale(4.12)">
		<rect x="-5" y="2.6" width="6.4" height="6.4"/>
	</g>
	<g transform="translate(216,600) scale(4.12)">
		<rect x="-3.2" y="2.6" width="6.4" height="6.4"/>
	</g>
	<g transform="translate(312,600) scale(4.12)">
		<rect x="-1.7" y="2.6" width="6.4" height="6.4"/>
	</g>
	<g transform="translate(336,600) scale(4.12)">
		<rect x="-1.3" y="2.6" width="6.4" height="6.4"/>
	</g>
	<g transform="translate(384,600) scale(4.12)">
		<rect x="-0.6" y="2.6" width="6.4" height="6.4"/>
	</g>
	<g transform="translate(432,600) scale(4.12)">
		<rect x="0.2" y="2.6" width="6.4" height="6.4"/>
	</g>
	<g transform="translate(504,600) scale(4.12)">
		<rect x="1.3" y="2.6" width="6.4" height="6.4"/>
	</g>
	<g transform="translate(528,600) scale(4.12)">
		<rect x="1.6" y="2.6" width="6.4" height="6.4"/>
	</g>
	<g transform="translate(552,600) scale(4.12)">
		<rect x="2" y="2.6" width="6.4" height="6.4"/>
	</g>
	<g transform="translate(576,600) scale(4.12)">
		<rect x="2.4" y="2.6" width="6.4" height="6.4"/>
	</g>
	<g transform="translate(624,600) scale(4.12)">
		<rect x="3.1" y="2.6" width="6.4" height="6.4"/>
	</g>
	<g transform="translate(648,600) scale(4.12)">
		<rect x="3.5" y="2.6" width="6.4" height="6.4"/>
	</g>
	<g transform="translate(672,600) scale(4.12)">
		<rect x="3.9" y="2.6" width="6.4" height="6.4"/>
	</g>
	<g transform="translate(696,600) scale(4.12)">
		<rect x="4.2" y="2.6" width="6.4" height="6.4"/>
	</g>
	<g transform="translate(768,600) scale(4.12)">
		<rect x="5.3" y="2.6" width="6.4" height="6.4"/>
	</g>
	<g transform="translate(792,600) scale(4.12)">
		<rect x="5.7" y="2.6" width="6.4" height="6.4"/>
	</g>
	<g transform="translate(48,624) scale(4.12)">
		<rect x="-5.8" y="2.9" width="6.4" height="6.4"/>
	</g>
	<g transform="translate(120,624) scale(4.12)">
		<rect x="-4.6" y="2.9" width="6.4" height="6.4"/>
	</g>
	<g transform="translate(144,624) scale(4.12)">
		<rect x="-4.3" y="2.9" width="6.4" height="6.4"/>
	</g>
	<g transform="translate(168,624) scale(4.12)">
		<rect x="-3.9" y="2.9" width="6.4" height="6.4"/>
	</g>
	<g transform="translate(192,624) scale(4.12)">
		<rect x="-3.5" y="2.9" width="6.4" height="6.4"/>
	</g>
	<g transform="translate(264,624) scale(4.12)">
		<rect x="-2.4" y="2.9" width="6.4" height="6.4"/>
	</g>
	<g transform="translate(312,624) scale(4.12)">
		<rect x="-1.7" y="2.9" width="6.4" height="6.4"/>
	</g>
	<g transform="translate(336,624) scale(4.12)">
		<rect x="-1.3" y="2.9" width="6.4" height="6.4"/>
	</g>
	<g transform="translate(360,624) scale(4.12)">
		<rect x="-0.9" y="2.9" width="6.4" height="6.4"/>
	</g>
	<g transform="translate(384,624) scale(4.12)">
		<rect x="-0.6" y="2.9" width="6.4" height="6.4"/>
	</g>
	<g transform="translate(432,624) scale(4.12)">
		<rect x="0.2" y="2.9" width="6.4" height="6.4"/>
	</g>
	<g transform="translate(456,624) scale(4.12)">
		<rect x="0.5" y="2.9" width="6.4" height="6.4"/>
	</g>
	<g transform="translate(480,624) scale(4.12)">
		<rect x="0.9" y="2.9" width="6.4" height="6.4"/>
	</g>
	<g transform="translate(504,624) scale(4.12)">
		<rect x="1.3" y="2.9" width="6.4" height="6.4"/>
	</g>
	<g transform="translate(528,624) scale(4.12)">
		<rect x="1.6" y="2.9" width="6.4" height="6.4"/>
	</g>
	<g transform="translate(624,624) scale(4.12)">
		<rect x="3.1" y="2.9" width="6.4" height="6.4"/>
	</g>
	<g transform="translate(648,624) scale(4.12)">
		<rect x="3.5" y="2.9" width="6.4" height="6.4"/>
	</g>
	<g transform="translate(672,624) scale(4.12)">
		<rect x="3.9" y="2.9" width="6.4" height="6.4"/>
	</g>
	<g transform="translate(696,624) scale(4.12)">
		<rect x="4.2" y="2.9" width="6.4" height="6.4"/>
	</g>
	<g transform="translate(720,624) scale(4.12)">
		<rect x="4.6" y="2.9" width="6.4" height="6.4"/>
	</g>
	<g transform="translate(744,624) scale(4.12)">
		<rect x="5" y="2.9" width="6.4" height="6.4"/>
	</g>
	<g transform="translate(816,624) scale(4.12)">
		<rect x="6.1" y="2.9" width="6.4" height="6.4"/>
	</g>
	<g transform="translate(240,648) scale(4.12)">
		<rect x="-2.8" y="3.3" width="6.4" height="6.4"/>
	</g>
	<g transform="translate(312,648) scale(4.12)">
		<rect x="-1.7" y="3.3" width="6.4" height="6.4"/>
	</g>
	<g transform="translate(384,648) scale(4.12)">
		<rect x="-0.6" y="3.3" width="6.4" height="6.4"/>
	</g>
	<g transform="translate(432,648) scale(4.12)">
		<rect x="0.2" y="3.3" width="6.4" height="6.4"/>
	</g>
	<g transform="translate(456,648) scale(4.12)">
		<rect x="0.5" y="3.3" width="6.4" height="6.4"/>
	</g>
	<g transform="translate(504,648) scale(4.12)">
		<rect x="1.3" y="3.3" width="6.4" height="6.4"/>
	</g>
	<g transform="translate(528,648) scale(4.12)">
		<rect x="1.6" y="3.3" width="6.4" height="6.4"/>
	</g>
	<g transform="translate(600,648) scale(4.12)">
		<rect x="2.8" y="3.3" width="6.4" height="6.4"/>
	</g>
	<g transform="translate(624,648) scale(4.12)">
		<rect x="3.1" y="3.3" width="6.4" height="6.4"/>
	</g>
	<g transform="translate(720,648) scale(4.12)">
		<rect x="4.6" y="3.3" width="6.4" height="6.4"/>
	</g>
	<g transform="translate(768,648) scale(4.12)">
		<rect x="5.3" y="3.3" width="6.4" height="6.4"/>
	</g>
	<g transform="translate(792,648) scale(4.12)">
		<rect x="5.7" y="3.3" width="6.4" height="6.4"/>
	</g>
	<g transform="translate(816,648) scale(4.12)">
		<rect x="6.1" y="3.3" width="6.4" height="6.4"/>
	</g>
	<g transform="translate(264,672) scale(4.12)">
		<rect x="-2.4" y="3.7" width="6.4" height="6.4"/>
	</g>
	<g transform="translate(312,672) scale(4.12)">
		<rect x="-1.7" y="3.7" width="6.4" height="6.4"/>
	</g>
	<g transform="translate(336,672) scale(4.12)">
		<rect x="-1.3" y="3.7" width="6.4" height="6.4"/>
	</g>
	<g transform="translate(360,672) scale(4.12)">
		<rect x="-0.9" y="3.7" width="6.4" height="6.4"/>
	</g>
	<g transform="translate(408,672) scale(4.12)">
		<rect x="-0.2" y="3.7" width="6.4" height="6.4"/>
	</g>
	<g transform="translate(432,672) scale(4.12)">
		<rect x="0.2" y="3.7" width="6.4" height="6.4"/>
	</g>
	<g transform="translate(456,672) scale(4.12)">
		<rect x="0.5" y="3.7" width="6.4" height="6.4"/>
	</g>
	<g transform="translate(576,672) scale(4.12)">
		<rect x="2.4" y="3.7" width="6.4" height="6.4"/>
	</g>
	<g transform="translate(600,672) scale(4.12)">
		<rect x="2.8" y="3.7" width="6.4" height="6.4"/>
	</g>
	<g transform="translate(624,672) scale(4.12)">
		<rect x="3.1" y="3.7" width="6.4" height="6.4"/>
	</g>
	<g transform="translate(672,672) scale(4.12)">
		<rect x="3.9" y="3.7" width="6.4" height="6.4"/>
	</g>
	<g transform="translate(720,672) scale(4.12)">
		<rect x="4.6" y="3.7" width="6.4" height="6.4"/>
	</g>
	<g transform="translate(768,672) scale(4.12)">
		<rect x="5.3" y="3.7" width="6.4" height="6.4"/>
	</g>
	<g transform="translate(240,696) scale(4.12)">
		<rect x="-2.8" y="4" width="6.4" height="6.4"/>
	</g>
	<g transform="translate(264,696) scale(4.12)">
		<rect x="-2.4" y="4" width="6.4" height="6.4"/>
	</g>
	<g transform="translate(312,696) scale(4.12)">
		<rect x="-1.7" y="4" width="6.4" height="6.4"/>
	</g>
	<g transform="translate(360,696) scale(4.12)">
		<rect x="-0.9" y="4" width="6.4" height="6.4"/>
	</g>
	<g transform="translate(408,696) scale(4.12)">
		<rect x="-0.2" y="4" width="6.4" height="6.4"/>
	</g>
	<g transform="translate(456,696) scale(4.12)">
		<rect x="0.5" y="4" width="6.4" height="6.4"/>
	</g>
	<g transform="translate(480,696) scale(4.12)">
		<rect x="0.9" y="4" width="6.4" height="6.4"/>
	</g>
	<g transform="translate(504,696) scale(4.12)">
		<rect x="1.3" y="4" width="6.4" height="6.4"/>
	</g>
	<g transform="translate(600,696) scale(4.12)">
		<rect x="2.8" y="4" width="6.4" height="6.4"/>
	</g>
	<g transform="translate(624,696) scale(4.12)">
		<rect x="3.1" y="4" width="6.4" height="6.4"/>
	</g>
	<g transform="translate(720,696) scale(4.12)">
		<rect x="4.6" y="4" width="6.4" height="6.4"/>
	</g>
	<g transform="translate(744,696) scale(4.12)">
		<rect x="5" y="4" width="6.4" height="6.4"/>
	</g>
	<g transform="translate(768,696) scale(4.12)">
		<rect x="5.3" y="4" width="6.4" height="6.4"/>
	</g>
	<g transform="translate(240,720) scale(4.12)">
		<rect x="-2.8" y="4.4" width="6.4" height="6.4"/>
	</g>
	<g transform="translate(264,720) scale(4.12)">
		<rect x="-2.4" y="4.4" width="6.4" height="6.4"/>
	</g>
	<g transform="translate(288,720) scale(4.12)">
		<rect x="-2.1" y="4.4" width="6.4" height="6.4"/>
	</g>
	<g transform="translate(432,720) scale(4.12)">
		<rect x="0.2" y="4.4" width="6.4" height="6.4"/>
	</g>
	<g transform="translate(528,720) scale(4.12)">
		<rect x="1.6" y="4.4" width="6.4" height="6.4"/>
	</g>
	<g transform="translate(552,720) scale(4.12)">
		<rect x="2" y="4.4" width="6.4" height="6.4"/>
	</g>
	<g transform="translate(576,720) scale(4.12)">
		<rect x="2.4" y="4.4" width="6.4" height="6.4"/>
	</g>
	<g transform="translate(624,720) scale(4.12)">
		<rect x="3.1" y="4.4" width="6.4" height="6.4"/>
	</g>
	<g transform="translate(648,720) scale(4.12)">
		<rect x="3.5" y="4.4" width="6.4" height="6.4"/>
	</g>
	<g transform="translate(672,720) scale(4.12)">
		<rect x="3.9" y="4.4" width="6.4" height="6.4"/>
	</g>
	<g transform="translate(696,720) scale(4.12)">
		<rect x="4.2" y="4.4" width="6.4" height="6.4"/>
	</g>
	<g transform="translate(720,720) scale(4.12)">
		<rect x="4.6" y="4.4" width="6.4" height="6.4"/>
	</g>
	<g transform="translate(744,720) scale(4.12)">
		<rect x="5" y="4.4" width="6.4" height="6.4"/>
	</g>
	<g transform="translate(792,720) scale(4.12)">
		<rect x="5.7" y="4.4" width="6.4" height="6.4"/>
	</g>
	<g transform="translate(240,744) scale(4.12)">
		<rect x="-2.8" y="4.8" width="6.4" height="6.4"/>
	</g>
	<g transform="translate(264,744) scale(4.12)">
		<rect x="-2.4" y="4.8" width="6.4" height="6.4"/>
	</g>
	<g transform="translate(408,744) scale(4.12)">
		<rect x="-0.2" y="4.8" width="6.4" height="6.4"/>
	</g>
	<g transform="translate(456,744) scale(4.12)">
		<rect x="0.5" y="4.8" width="6.4" height="6.4"/>
	</g>
	<g transform="translate(480,744) scale(4.12)">
		<rect x="0.9" y="4.8" width="6.4" height="6.4"/>
	</g>
	<g transform="translate(648,744) scale(4.12)">
		<rect x="3.5" y="4.8" width="6.4" height="6.4"/>
	</g>
	<g transform="translate(720,744) scale(4.12)">
		<rect x="4.6" y="4.8" width="6.4" height="6.4"/>
	</g>
	<g transform="translate(816,744) scale(4.12)">
		<rect x="6.1" y="4.8" width="6.4" height="6.4"/>
	</g>
	<g transform="translate(240,768) scale(4.12)">
		<rect x="-2.8" y="5.1" width="6.4" height="6.4"/>
	</g>
	<g transform="translate(264,768) scale(4.12)">
		<rect x="-2.4" y="5.1" width="6.4" height="6.4"/>
	</g>
	<g transform="translate(288,768) scale(4.12)">
		<rect x="-2.1" y="5.1" width="6.4" height="6.4"/>
	</g>
	<g transform="translate(408,768) scale(4.12)">
		<rect x="-0.2" y="5.1" width="6.4" height="6.4"/>
	</g>
	<g transform="translate(432,768) scale(4.12)">
		<rect x="0.2" y="5.1" width="6.4" height="6.4"/>
	</g>
	<g transform="translate(456,768) scale(4.12)">
		<rect x="0.5" y="5.1" width="6.4" height="6.4"/>
	</g>
	<g transform="translate(528,768) scale(4.12)">
		<rect x="1.6" y="5.1" width="6.4" height="6.4"/>
	</g>
	<g transform="translate(576,768) scale(4.12)">
		<rect x="2.4" y="5.1" width="6.4" height="6.4"/>
	</g>
	<g transform="translate(624,768) scale(4.12)">
		<rect x="3.1" y="5.1" width="6.4" height="6.4"/>
	</g>
	<g transform="translate(672,768) scale(4.12)">
		<rect x="3.9" y="5.1" width="6.4" height="6.4"/>
	</g>
	<g transform="translate(696,768) scale(4.12)">
		<rect x="4.2" y="5.1" width="6.4" height="6.4"/>
	</g>
	<g transform="translate(744,768) scale(4.12)">
		<rect x="5" y="5.1" width="6.4" height="6.4"/>
	</g>
	<g transform="translate(768,768) scale(4.12)">
		<rect x="5.3" y="5.1" width="6.4" height="6.4"/>
	</g>
	<g transform="translate(264,792) scale(4.12)">
		<rect x="-2.4" y="5.5" width="6.4" height="6.4"/>
	</g>
	<g transform="translate(312,792) scale(4.12)">
		<rect x="-1.7" y="5.5" width="6.4" height="6.4"/>
	</g>
	<g transform="translate(360,792) scale(4.12)">
		<rect x="-0.9" y="5.5" width="6.4" height="6.4"/>
	</g>
	<g transform="translate(408,792) scale(4.12)">
		<rect x="-0.2" y="5.5" width="6.4" height="6.4"/>
	</g>
	<g transform="translate(552,792) scale(4.12)">
		<rect x="2" y="5.5" width="6.4" height="6.4"/>
	</g>
	<g transform="translate(600,792) scale(4.12)">
		<rect x="2.8" y="5.5" width="6.4" height="6.4"/>
	</g>
	<g transform="translate(624,792) scale(4.12)">
		<rect x="3.1" y="5.5" width="6.4" height="6.4"/>
	</g>
	<g transform="translate(720,792) scale(4.12)">
		<rect x="4.6" y="5.5" width="6.4" height="6.4"/>
	</g>
	<g transform="translate(744,792) scale(4.12)">
		<rect x="5" y="5.5" width="6.4" height="6.4"/>
	</g>
	<g transform="translate(768,792) scale(4.12)">
		<rect x="5.3" y="5.5" width="6.4" height="6.4"/>
	</g>
	<g transform="translate(240,816) scale(4.12)">
		<rect x="-2.8" y="5.9" width="6.4" height="6.4"/>
	</g>
	<g transform="translate(336,816) scale(4.12)">
		<rect x="-1.3" y="5.9" width="6.4" height="6.4"/>
	</g>
	<g transform="translate(384,816) scale(4.12)">
		<rect x="-0.6" y="5.9" width="6.4" height="6.4"/>
	</g>
	<g transform="translate(408,816) scale(4.12)">
		<rect x="-0.2" y="5.9" width="6.4" height="6.4"/>
	</g>
	<g transform="translate(432,816) scale(4.12)">
		<rect x="0.2" y="5.9" width="6.4" height="6.4"/>
	</g>
	<g transform="translate(456,816) scale(4.12)">
		<rect x="0.5" y="5.9" width="6.4" height="6.4"/>
	</g>
	<g transform="translate(528,816) scale(4.12)">
		<rect x="1.6" y="5.9" width="6.4" height="6.4"/>
	</g>
	<g transform="translate(576,816) scale(4.12)">
		<rect x="2.4" y="5.9" width="6.4" height="6.4"/>
	</g>
	<g transform="translate(624,816) scale(4.12)">
		<rect x="3.1" y="5.9" width="6.4" height="6.4"/>
	</g>
	<g transform="translate(648,816) scale(4.12)">
		<rect x="3.5" y="5.9" width="6.4" height="6.4"/>
	</g>
	<g transform="translate(672,816) scale(4.12)">
		<rect x="3.9" y="5.9" width="6.4" height="6.4"/>
	</g>
	<g transform="translate(696,816) scale(4.12)">
		<rect x="4.2" y="5.9" width="6.4" height="6.4"/>
	</g>
	<g transform="translate(792,816) scale(4.12)">
		<rect x="5.7" y="5.9" width="6.4" height="6.4"/>
	</g>
	<g transform="translate(48,48)">
		<g transform="scale(12)">
			<path d="M-2-2v14.9h14.9V-2H-2z M10.8,10.7H0.2V0.1h10.6V10.7z"/>
		</g>
	</g>
	<g transform="translate(672,48)">
		<g transform="scale(12)">
			<path d="M1.3-2v14.9h14.9V-2H1.3z M14.1,10.7H3.5V0.1h10.6V10.7z"/>
		</g>
	</g>
	<g transform="translate(48,672)">
		<g transform="scale(12)">
			<path d="M-2,1.3v14.9h14.9V1.3H-2z M10.8,14H0.2V3.4h10.6V14z"/>
		</g>
	</g>
	<g transform="translate(96,96)">
		<g transform="scale(12)">
			<rect x="-1.7" y="-1.8" width="6.4" height="6.4"/>
		</g>
	</g>
	<g transform="translate(720,96)">
		<g transform="scale(12)">
			<rect x="1.6" y="-1.8" width="6.4" height="6.4"/>
		</g>
	</g>
	<g transform="translate(96,720)">
		<g transform="scale(12)">
			<rect x="-1.7" y="1.5" width="6.4" height="6.4"/>
		</g>
	</g>
</g>
<g>
	<polygon class="st0" points="408.3,441.7 380.7,457.5 355.1,501.6 459.6,441.7 	"/>
	<polygon class="st1" points="487.2,396.5 459.6,412.3 434,456.4 538.5,396.5 	"/>
	<polygon class="st2" points="459.6,380.7 434,336.6 434,427 434,456.4 434,546.8 459.6,502.7 	"/>
	<polygon class="st3" points="434,336.6 459.6,380.7 487.2,396.5 538.5,396.5 	"/>
	<polygon class="st4" points="434,427 434,546.8 459.6,502.7 459.6,471 	"/>
	<polygon class="st5" points="487.2,486.9 459.6,502.7 434,546.8 538.5,486.9 	"/>
	<polygon class="st6" points="355.1,381.8 355.1,501.6 380.7,457.5 380.7,425.8 	"/>
	<polygon class="st7" points="434,427 434,427 355.1,381.8 380.7,425.8 487.2,486.9 538.5,486.9 	"/>
</g>
</svg>
