<?xml version="1.0" encoding="utf-8"?>
<!-- Generator: Adobe Illustrator 24.0.0, SVG Export Plug-In . SVG Version: 6.00 Build 0)  -->
<svg version="1.1" id="Layer_1" xmlns="http://www.w3.org/2000/svg" xmlns:xlink="http://www.w3.org/1999/xlink" x="0px" y="0px"
	 viewBox="0 0 600 380" style="enable-background:new 0 0 600 380;" xml:space="preserve">
<style type="text/css">
	.st0{fill:#464646;stroke:#000000;stroke-width:7;stroke-linecap:round;stroke-linejoin:round;stroke-miterlimit:10;}
	.st1{fill:none;stroke:#000000;stroke-width:6.8345;stroke-linecap:round;stroke-linejoin:round;stroke-miterlimit:10;}
	.st2{fill:none;stroke:#000000;stroke-width:8.082;stroke-linecap:round;stroke-linejoin:round;stroke-miterlimit:10;}
	.st3{fill:#A0A0A0;stroke:#000000;stroke-width:7;stroke-linecap:round;stroke-linejoin:round;stroke-miterlimit:10;}
	.st4{fill:#FFFFFF;}
</style>
<g>
	<rect x="37.4" y="30.9" class="st0" width="438.5" height="273.4"/>
	<line class="st1" x1="183.1" y1="330.8" x2="323.2" y2="330.8"/>
	<g>
		<line class="st2" x1="210.7" y1="305.4" x2="210.7" y2="329.8"/>
		<line class="st2" x1="302.6" y1="305.4" x2="302.6" y2="329.8"/>
	</g>
	<line class="st3" x1="139.9" y1="103" x2="385.8" y2="103"/>
	<line class="st3" x1="139.9" y1="127.3" x2="385.8" y2="127.3"/>
	<line class="st3" x1="139.9" y1="151.6" x2="385.8" y2="151.6"/>
	<line class="st3" x1="139.9" y1="175.8" x2="385.8" y2="175.8"/>
	<line class="st3" x1="139.9" y1="200.1" x2="385.8" y2="200.1"/>
	<line class="st3" x1="139.9" y1="224.4" x2="385.8" y2="224.4"/>
	<line class="st3" x1="139.9" y1="248.6" x2="385.8" y2="248.6"/>
	<path class="st4" d="M320.3,269.7H207.6c-10,0-18.1-8.1-18.1-18.1V82.3c0-10,8.1-18.1,18.1-18.1h112.7c10,0,18.1,8.1,18.1,18.1
		v169.3C338.3,261.6,330.2,269.7,320.3,269.7z"/>
	<g>
		<rect x="281.6" y="96.6" width="26.7" height="26.7"/>
		<rect x="281.6" y="162.8" width="26.7" height="26.7"/>
		<rect x="294.7" y="136.3" width="13.7" height="13.7"/>
		<rect x="255.8" y="136.3" width="26.4" height="13.7"/>
		<rect x="216" y="136.3" width="26.4" height="13.7"/>
		<rect x="215.7" y="96.6" width="26.7" height="26.7"/>
		<rect x="256.1" y="96.6" width="12.4" height="26.7"/>
		<rect x="256.1" y="162.4" width="12.4" height="26.7"/>
		<polygon points="228.5,175.5 242.5,175.5 242.5,189.2 228.5,189.2 216,189.2 216,175.5 216,162.4 228.5,162.4 		"/>
	</g>
	<path d="M307.8,246.1h-86.1c-4,0-7.3-3.3-7.3-7.3v-8.5c0-4,3.3-7.3,7.3-7.3h86.1c4,0,7.3,3.3,7.3,7.3v8.5
		C315.2,242.8,311.9,246.1,307.8,246.1z"/>
	<rect x="209.8" y="305.1" width="91.5" height="24.9"/>
</g>
<g>
	<path class="st4" d="M347.5,349.3l-0.5-77.7l16.3-37.4l3.8-8.9l5.9-2.7c0,0,1.1-109.7,2.2-122.7c1.1-12.9,8.1-21,21.6-20.5
		c13.5,0.5,94.9-0.5,94.9-0.5s15.1,4.9,16.2,14.6c1.1,9.7,0.7,254.3,0.7,254.3L347.5,349.3z"/>
	<path d="M474.2,133h-8.9v7h8.9c1.6,0,2.8,1.3,2.8,2.8v7.8h7v-7.8C484.1,137.4,479.7,133,474.2,133z"/>
	<path d="M405.1,142.9c0-1.6,1.3-2.8,2.8-2.8h8.9v-7h-8.9c-5.4,0-9.8,4.4-9.8,9.8v7.8h7V142.9z"/>
	<path d="M405.1,209.2v-10h-7v10c0,5.4,4.4,9.8,9.8,9.8h8.9v-7h-8.9C406.4,212,405.1,210.8,405.1,209.2z"/>
	<path d="M474.2,212h-10v7h10c5.4,0,9.8-4.4,9.8-9.8v-8.9h-7v8.9C477,210.7,475.7,212,474.2,212z"/>
	<rect x="413.5" y="147.8" width="16.2" height="16.2"/>
	<rect x="413.5" y="187.8" width="16.2" height="16.2"/>
	<rect x="413.5" y="171.8" width="8.3" height="8.3"/>
	<rect x="429.3" y="171.8" width="16" height="8.3"/>
	<rect x="453.3" y="171.8" width="16" height="8.3"/>
	<rect x="453.3" y="147.8" width="16.2" height="16.2"/>
	<rect x="437.5" y="147.8" width="7.5" height="16.2"/>
	<rect x="437.5" y="187.6" width="7.5" height="16.2"/>
	<polygon points="461.8,195.5 453.3,195.5 453.3,203.8 461.8,203.8 469.3,203.8 469.3,195.5 469.3,187.6 461.8,187.6 	"/>
	<path d="M551.2,287.3c-3.5,0-6.6,1.2-8.9,3.3c0,0-0.1,0-0.1,0.1c-3.6-4.9-9.6-7.7-15.4-7.7c-3.6,0-6.8,1.1-9.2,3.1
		c-0.1,0.1-0.3,0.2-0.4,0.4c-1.3-1.6-3-2.8-4.8-3.6V101.9c0-14.4-11.7-26.2-26.2-26.2h-89.6c-14.4,0-26.2,11.7-26.2,26.2v115.3
		c-2.6,1.3-6.2,4.2-9.6,11c-5,10-17.6,39.9-18.1,41.2c-0.2,0.4-0.3,0.9-0.3,1.4v83c0,1.9,1.6,3.5,3.5,3.5s3.5-1.6,3.5-3.5v-82.3
		c1.9-4.5,13.1-31.2,17.6-40.1c1.2-2.4,2.4-4.1,3.4-5.3v69.7c0,0,0,0.1,0,0.1c-2.2,3.7-3.5,6.1-3.5,6.1l6.1,3.5c0,0,18-31,25-43
		c1.7-2.9,4.3-3.5,6.3-3.4c3.7,0,7.5,2.2,9.1,5.1c1.2,2.1,1,4.4-0.4,6.7c-7.9,12.9-18,31-18.1,31.1c-0.6,1-0.6,2.2-0.1,3.3
		l10.6,21.3v26.2c0,1.9,1.6,3.5,3.5,3.5s3.5-1.6,3.5-3.5v-1.1h40.9c1.2,2,2,3.3,2.2,3.5c0.7,1.1,1.8,1.6,3,1.6
		c0.6,0,1.3-0.2,1.8-0.5c1.6-1,2.1-3.2,1.1-4.8c0-0.1-1.1-1.8-2.7-4.3c-0.2-0.6-0.5-1.1-1-1.5c-4.3-6.9-11.1-18-13.8-22.6
		c-2.7-4.6-0.6-8.9,2.4-11.1c2.8-2,7.1-2.5,10.9,2.1c5.3,6.3,8.2,11,8.2,11.1c0.8,1.3,2.4,2,3.9,1.5c1.5-0.4,2.6-1.8,2.6-3.4v-63.5
		c0-3,0.9-5.4,2.7-7.1c1.6-1.4,3.8-2.3,6-2.3c4.1,0,8.2,2.6,8.2,8.4v54.5c0,1.9,1.6,3.5,3.5,3.5s3.5-1.6,3.5-3.5v-15.5
		c0.4-0.5,0.6-1.2,0.6-1.9c0-2.5,0.8-4.4,2.5-5.8c1.5-1.3,3.7-2,6-2c3.1,0,8.4,1.6,8.4,7.7v19c0,1.9,1.6,3.5,3.5,3.5
		s3.5-1.6,3.5-3.5v-19c0-5.1,4-5.9,6.3-5.9c4.7,0,11.7,3.5,11.7,10.9v15c0,1.9,1.6,3.5,3.5,3.5s3.5-1.6,3.5-3.5v-15
		c0-2.4,0.6-4.1,1.7-5.2c1.2-1.1,2.8-1.4,4-1.4c5.1,0,11.3,4.3,11.3,9.6v49c0,1.9,1.6,3.5,3.5,3.5s3.5-1.6,3.5-3.5v-49
		C569.5,294.3,559.8,287.3,551.2,287.3z M505.5,281.1c-0.1,0-0.3,0-0.4,0c-3.3,0-6.5,0.9-9.1,2.6v-24.9c0-10.1-7.7-15.4-15.2-15.4
		c-1.2,0-4.3,0.6-4.3,0.6c0.6,0-1,0.3-0.4,0.2c-2.2,0.7-4.3,1.8-6,3.4c-2.3,2.1-5,5.9-5,12.2v52.6c-0.7-0.9-1.5-1.9-2.3-2.8
		c-6.4-7.7-14.8-7.2-20.3-3.3c-5.7,4-9.1,12.3-4.4,20.3c2.2,3.8,7,11.6,11,18.1h-36.5v-18.9c0-0.5-0.1-1.1-0.4-1.6L402,303.9
		c2.6-4.7,10.5-18.7,17-29.3c2.8-4.5,3-9.4,0.6-13.8c-2.8-5.1-8.9-8.6-15.1-8.7c-5.4-0.1-9.9,2.4-12.5,6.9
		c-3.4,5.8-9.3,15.9-14.5,24.9v-182c0-10.6,8.6-19.2,19.2-19.2h14.7v10.1c0,2.5,2.1,4.6,4.6,4.6h49.5c2.5,0,4.6-2.1,4.6-4.6V82.8
		h16.2c10.6,0,19.2,8.6,19.2,19.2V281.1z"/>
</g>
</svg>
